<svg width="37" height="31" viewBox="0 0 37 31" fill="none" xmlns="http://www.w3.org/2000/svg">
<path opacity="0.1" d="M11.6448 13.7704C10.7487 13.5124 9.85255 13.3815 8.98086 13.3815C7.63479 13.3815 6.51159 13.6891 5.64067 14.0658C6.4803 10.992 8.49731 5.68822 12.5153 5.09094C12.8874 5.0356 13.1924 4.76654 13.2939 4.40435L14.1721 1.26338C14.2461 0.997753 14.2022 0.713425 14.0507 0.482908C13.8992 0.252392 13.6557 0.0985875 13.3828 0.0611859C13.0863 0.0207311 12.784 0.00012207 12.4844 0.00012207C7.6615 0.00012207 2.88516 5.03407 0.869671 12.2419C-0.313441 16.4706 -0.66036 22.8281 2.25391 26.8297C3.8847 29.0688 6.2639 30.2645 9.32549 30.384C9.33809 30.3844 9.3503 30.3847 9.36289 30.3847C13.1405 30.3847 16.4902 27.8407 17.5092 24.1986C18.1179 22.0213 17.8428 19.7379 16.7337 17.7674C15.6364 15.8191 13.8293 14.399 11.6448 13.7704Z" fill="#EE5514"/>
<path opacity="0.1" d="M35.2914 17.7677C34.1941 15.819 32.387 14.3989 30.2025 13.7703C29.3064 13.5123 28.4102 13.3814 27.5389 13.3814C26.1929 13.3814 25.0693 13.689 24.1984 14.0657C25.038 10.9919 27.055 5.6881 31.0734 5.09082C31.4455 5.03548 31.7501 4.76642 31.852 4.40423L32.7301 1.26326C32.8042 0.997631 32.7603 0.713303 32.6088 0.482786C32.4576 0.25227 32.2141 0.0984654 31.9409 0.0610638C31.6447 0.020609 31.3425 0 31.0425 0C26.2196 0 21.4432 5.03395 19.4274 12.2418C18.2446 16.4705 17.8977 22.828 20.8124 26.8303C22.4428 29.0691 24.8224 30.2652 27.8836 30.3842C27.8962 30.3846 27.9084 30.385 27.9214 30.385C31.6985 30.385 35.0487 27.8409 36.0677 24.1989C36.6756 22.0215 36.4001 19.7378 35.2914 17.7677Z" fill="#EE5514"/>
</svg>
